<svg width="20" height="20" viewBox="0 0 20 20" fill="none" xmlns="http://www.w3.org/2000/svg"><path d="M12.946 5.8753C13.2714 5.54987 13.7991 5.54987 14.1245 5.8753C14.45 6.20074 14.45 6.72838 14.1245 7.05382L7.05345 14.1249C6.72801 14.4503 6.20037 14.4503 5.87494 14.1249C5.5495 13.7994 5.5495 13.2718 5.87494 12.9464L12.946 5.8753Z" fill="#1A1A1A"/><path d="M14.1245 12.9464C14.45 13.2718 14.45 13.7994 14.1245 14.1249C13.7991 14.4503 13.2714 14.4503 12.946 14.1249L5.87494 7.05382C5.5495 6.72838 5.5495 6.20074 5.87494 5.8753C6.20037 5.54987 6.72801 5.54987 7.05345 5.8753L14.1245 12.9464Z" fill="#1A1A1A"/></svg>